<?xml version="1.0" standalone="no"?>
<!DOCTYPE svg PUBLIC "-//W3C//DTD SVG 20010904//EN"
 "http://www.w3.org/TR/2001/REC-SVG-20010904/DTD/svg10.dtd">
<svg version="1.0" xmlns="http://www.w3.org/2000/svg"
 width="120.000000pt" height="120.000000pt" viewBox="0 0 120.000000 120.000000"
 preserveAspectRatio="xMidYMid meet">
<metadata>
Created by potrace 1.14, written by Peter Selinger 2001-2017
</metadata>
<g transform="translate(0.000000,120.000000) scale(0.100000,-0.100000)"
fill="#000000" stroke="none">
<path d="M0 600 l0 -600 600 0 600 0 0 600 0 600 -600 0 -600 0 0 -600z m710
347 c57 -29 74 -61 79 -149 l3 -78 -55 0 -55 0 -7 55 c-8 68 -31 98 -74 98
-48 0 -72 -29 -73 -90 0 -28 5 -60 12 -72 6 -13 54 -42 113 -71 119 -56 137
-78 145 -176 12 -155 -60 -234 -213 -234 -65 0 -133 34 -159 79 -12 21 -21 60
-24 107 l-5 74 61 0 60 0 4 -64 c5 -82 26 -116 73 -116 62 0 83 38 76 140 -4
48 -22 65 -123 116 -52 26 -95 55 -107 73 -26 36 -43 122 -35 170 15 95 41
131 104 150 50 15 159 8 200 -12z"/>
</g>
</svg>
